<?xml version="1.0" encoding="UTF-8"?>
<!-- ListFlowHQ Icon (Monochrome) -->
<svg xmlns="http://www.w3.org/2000/svg" viewBox="0 0 64 64" width="64" height="64" role="img" aria-label="ListFlowHQ icon monochrome">
  <rect x="4" y="4" width="56" height="56" rx="14" ry="14" fill="#1E293B" />
  <rect x="30" y="18" width="4" height="28" rx="2" fill="#FFFFFF" />
  <path d="M16 24c6 0 10 4 16 4s10-4 16-4" fill="none" stroke="#FFFFFF" stroke-width="2.5" stroke-linecap="round" opacity="0.55" />
  <path d="M16 32c6 0 10 4 16 4s10-4 16-4" fill="none" stroke="#FFFFFF" stroke-width="2.5" stroke-linecap="round" />
  <path d="M16 40c6 0 10 4 16 4s10-4 16-4" fill="none" stroke="#FFFFFF" stroke-width="2.5" stroke-linecap="round" opacity="0.55" />
  <path d="M26 18c3-3 9-3 12 0" fill="none" stroke="#FFFFFF" stroke-width="2" stroke-linecap="round" />
  <path d="M22 14c5-5 15-5 20 0" fill="none" stroke="#FFFFFF" stroke-width="2" stroke-linecap="round" opacity="0.35" />
  <path d="M36 30l8 6-8 6v-4h-6c-5 0-9-4-9-9v-2" fill="none" stroke="#FFFFFF" stroke-width="3" stroke-linejoin="round" stroke-linecap="round" />
  <circle cx="32" cy="32" r="22" fill="none" stroke="#FFFFFF" stroke-width="1.25" opacity="0.22" />
</svg>
