<?xml version="1.0" encoding="UTF-8"?>
<!-- ListFlowHQ Icon (Favicon Simplified) -->
<svg xmlns="http://www.w3.org/2000/svg" viewBox="0 0 32 32" width="32" height="32" role="img" aria-label="ListFlowHQ favicon">
  <defs>
    <linearGradient id="g1" x1="0%" y1="0%" x2="100%" y2="100%">
      <stop offset="0%" stop-color="#2563EB"/>
      <stop offset="100%" stop-color="#1E40AF"/>
    </linearGradient>
  </defs>
  <rect x="2" y="2" width="28" height="28" rx="7" ry="7" fill="url(#g1)" />
  <path d="M9 12c3 0 5 2 7 2s4-2 7-2" fill="none" stroke="#FFFFFF" stroke-width="1.6" stroke-linecap="round" opacity="0.65" />
  <path d="M9 16c3 0 5 2 7 2s4-2 7-2" fill="none" stroke="#FFFFFF" stroke-width="1.7" stroke-linecap="round" />
  <path d="M9 20c3 0 5 2 7 2s4-2 7-2" fill="none" stroke="#FFFFFF" stroke-width="1.6" stroke-linecap="round" opacity="0.65" />
  <path d="M20 15l4 3-4 3v-2h-3c-2.5 0-4.5-2-4.5-4.5V14" fill="none" stroke="#10B981" stroke-width="2" stroke-linecap="round" stroke-linejoin="round" />
</svg>
